<?xml version="1.0" encoding="UTF-8" standalone="no"?>
<svg
   viewBox="0 0 1748.7915 1069.1567"
   version="1.1"
   id="svg1"
   sodipodi:docname="Create-A-Site.svg.svg"
   width="1748.7915"
   height="1069.1567"
   xml:space="preserve"
   xmlns:inkscape="http://www.inkscape.org/namespaces/inkscape"
   xmlns:sodipodi="http://sodipodi.sourceforge.net/DTD/sodipodi-0.dtd"
   xmlns="http://www.w3.org/2000/svg"
   xmlns:svg="http://www.w3.org/2000/svg"><defs
     id="defs1" /><sodipodi:namedview
     id="namedview1"
     pagecolor="#ffffff"
     bordercolor="#000000"
     borderopacity="0.25"
     inkscape:showpageshadow="2"
     inkscape:pageopacity="0.0"
     inkscape:pagecheckerboard="0"
     inkscape:deskcolor="#d1d1d1"
     showgrid="false" /><!--!Font Awesome Free 6.7.2 by @fontawesome - https://fontawesome.com License - https://fontawesome.com/license/free Copyright 2025 Fonticons, Inc.--><path
     fill="#3b82f6"
     d="m 874.39435,0 c 25.79464,0 46.63444,20.83978 46.63444,46.63447 v 93.26895 H 1095.908 c 58.0017,0 104.9276,46.92594 104.9276,104.92758 v 396.3931 c 0,58.0016 -46.9259,104.9276 -104.9276,104.9276 H 652.88048 c -58.00162,0 -104.92756,-46.926 -104.92756,-104.9276 V 244.831 c 0,-58.00164 46.92594,-104.92758 104.92756,-104.92758 H 827.7598 V 46.63447 C 827.7598,20.83978 848.59961,0 874.39435,0 Z M 711.17361,559.6138 c -12.82451,0 -23.31728,10.4927 -23.31728,23.3172 0,12.8245 10.49277,23.3172 23.31728,23.3172 h 46.63437 c 12.8245,0 23.31734,-10.4927 23.31734,-23.3172 0,-12.8245 -10.49284,-23.3172 -23.31734,-23.3172 z m 139.90342,0 c -12.82449,0 -23.31723,10.4927 -23.31723,23.3172 0,12.8245 10.49274,23.3172 23.31723,23.3172 h 46.63446 c 12.8245,0 23.3173,-10.4927 23.3173,-23.3172 0,-12.8245 -10.4928,-23.3172 -23.3173,-23.3172 z m 139.90346,0 c -12.8245,0 -23.3172,10.4927 -23.3172,23.3172 0,12.8245 10.4927,23.3172 23.3172,23.3172 h 46.63451 c 12.8245,0 23.3172,-10.4927 23.3172,-23.3172 0,-12.8245 -10.4927,-23.3172 -23.3172,-23.3172 z m -198.1965,-186.538 a 58.293137,58.293143 0 1 0 -116.58627,0 58.293137,58.293143 0 1 0 116.58627,0 z m 221.51371,58.2931 a 58.293096,58.293102 0 1 0 0,-116.5862 58.293096,58.293102 0 1 0 0,116.5862 z M 478.00122,326.44132 h 23.31723 V 606.2482 h -23.31723 c -38.61917,0 -69.95172,-31.3325 -69.95172,-69.9517 V 396.39305 c 0,-38.61919 31.33255,-69.95173 69.95172,-69.95173 z m 792.78608,0 c 38.6192,0 69.9516,31.33254 69.9516,69.95173 V 536.2965 c 0,38.6192 -31.3324,69.9517 -69.9516,69.9517 h -23.3172 V 326.44132 Z"
     id="path1"
     style="stroke-width:1.45733" /><text
     x="-10.121269"
     y="1065.7374"
     font-family="ui-sans-serif, system-ui, sans-serif"
     font-size="280.113px"
     font-weight="bold"
     fill="#f3f4f6"
     id="text1"
     style="fill:#ffffff;stroke-width:14.0056">Create-A-Site</text></svg>
