<?xml version="1.0" encoding="UTF-8" standalone="no"?>
<svg
   viewBox="0 0 2000 2000"
   version="1.1"
   id="svg1"
   width="2000"
   height="2000"
   xml:space="preserve"
   xmlns="http://www.w3.org/2000/svg"
   xmlns:svg="http://www.w3.org/2000/svg"><defs
     id="defs1" /><!--!Font Awesome Free 6.7.2 by @fontawesome - https://fontawesome.com License - https://fontawesome.com/license/free Copyright 2025 Fonticons, Inc.--><path
     fill="#3b82f6"
     d="m 999.99936,350 c 25.79464,0 46.63444,20.83978 46.63444,46.63447 v 93.26895 h 174.8792 c 58.0017,0 104.9276,46.92594 104.9276,104.92758 v 396.3931 c 0,58.0016 -46.9259,104.9276 -104.9276,104.9276 H 778.48549 c -58.00162,0 -104.92756,-46.926 -104.92756,-104.9276 V 594.831 c 0,-58.00164 46.92594,-104.92758 104.92756,-104.92758 H 953.36481 V 396.63447 C 953.36481,370.83978 974.20462,350 999.99936,350 Z M 836.77862,909.6138 c -12.82451,0 -23.31728,10.4927 -23.31728,23.3172 0,12.8245 10.49277,23.3172 23.31728,23.3172 h 46.63437 c 12.8245,0 23.31734,-10.4927 23.31734,-23.3172 0,-12.8245 -10.49284,-23.3172 -23.31734,-23.3172 z m 139.90342,0 c -12.82449,0 -23.31723,10.4927 -23.31723,23.3172 0,12.8245 10.49274,23.3172 23.31723,23.3172 h 46.63446 c 12.8245,0 23.3173,-10.4927 23.3173,-23.3172 0,-12.8245 -10.4928,-23.3172 -23.3173,-23.3172 z m 139.90346,0 c -12.8245,0 -23.3172,10.4927 -23.3172,23.3172 0,12.8245 10.4927,23.3172 23.3172,23.3172 h 46.6345 c 12.8245,0 23.3172,-10.4927 23.3172,-23.3172 0,-12.8245 -10.4927,-23.3172 -23.3172,-23.3172 z M 918.389,723.0758 a 58.293137,58.293143 0 1 0 -116.58627,0 58.293137,58.293143 0 1 0 116.58627,0 z m 221.5137,58.2931 a 58.293096,58.293102 0 1 0 0,-116.5862 58.293096,58.293102 0 1 0 0,116.5862 z M 603.60623,676.44132 h 23.31723 V 956.2482 h -23.31723 c -38.61917,0 -69.95172,-31.3325 -69.95172,-69.9517 V 746.39305 c 0,-38.61919 31.33255,-69.95173 69.95172,-69.95173 z m 792.78607,0 c 38.6192,0 69.9516,31.33254 69.9516,69.95173 V 886.2965 c 0,38.6192 -31.3324,69.9517 -69.9516,69.9517 h -23.3172 V 676.44132 Z"
     id="path1"
     style="stroke-width:1.45733" /><text
     x="115.48374"
     y="1415.7374"
     font-family="ui-sans-serif, system-ui, sans-serif"
     font-size="280.113px"
     font-weight="bold"
     fill="#f3f4f6"
     id="text1"
     style="fill:#ffffff;stroke-width:14.0056">Create-A-Site</text></svg>
